# xmcd
#
# Track frame offsets: 
#        150
#        15087
#        25905
#        40980
#        57961
#        76457
#        93430
#        106677
#        121217
#        137690
#        155095
#        166729
#        182164
#        194280
#
# Disc length: 2785 seconds
#
# Revision: 0
# Processed by: cddbd v1.5.2PL0 Copyright (c) Steve Scherf et al.
# Submitted via: ExactAudioCopyFreeDBPlugin 1.0
#
DISCID=a70adf0e
DTITLE=Ted McCloskey - Last Flower Standing
DYEAR=1900
DGENRE=
TTITLE0=How Many More?
TTITLE1=A Flower in Madrid
TTITLE2=The Presence of Your Absence
TTITLE3=Rather Live with the Heartache
TTITLE4=Spin.Spinning.Spun.
TTITLE5=Where Dreams Go to Die
TTITLE6=Little Rose
TTITLE7=What your Love Looks Like
TTITLE8=Weightless
TTITLE9=Black, White and Dorian Gray
TTITLE10=Violet Wilde
TTITLE11=Bigger Bombs
TTITLE12=Where it Never Rains
TTITLE13=Bury this Shadow
EXTD=
EXTT0=
EXTT1=
EXTT2=
EXTT3=
EXTT4=
EXTT5=
EXTT6=
EXTT7=
EXTT8=
EXTT9=
EXTT10=
EXTT11=
EXTT12=
EXTT13=
PLAYORDER=
